<svg xmlns="http://www.w3.org/2000/svg" viewBox="0 0 21 21"><defs><style>.cls-1{isolation:isolate;opacity:0.99;}.cls-2,.cls-3{fill:#fff;}.cls-3{fill-rule:evenodd;}.cls-4{fill:none;}</style></defs><g id="Layer_2" data-name="Layer 2"><g id="Layer_1-2" data-name="Layer 1"><g id="g8530-0-8" class="cls-1"><path id="path8523-4-0" class="cls-2" d="M8,9.5a.49.49,0,0,1,.41.25l4,7a.5.5,0,0,1-.43.75H4a.5.5,0,0,1-.43-.75l4-7A.5.5,0,0,1,8,9.5Z"/><path id="ellipse8525-5-4" class="cls-2" d="M13,6.5A1.5,1.5,0,1,1,11.5,8,1.51,1.51,0,0,1,13,6.5Z"/><path id="path8528-7-3" class="cls-3" d="M4,3.5a.5.5,0,0,0-.5.5V14.85l1-1.75V4.5h12v12H13.4a1.43,1.43,0,0,1,0,1H17a.5.5,0,0,0,.5-.5V4a.5.5,0,0,0-.5-.5Z"/></g><rect class="cls-4" width="21" height="21"/></g></g></svg>